<svg width="1024" height="1024" viewBox="0 0 1024 1024" fill="none" xmlns="http://www.w3.org/2000/svg">
<path d="M528.629 119.3C591.725 120.372 650.592 135.416 705.405 164.901C762.821 195.787 810.967 238.166 851.952 288.671C890.265 335.884 919.787 388.072 938.229 446.231C947.668 475.995 953.339 506.417 955.863 537.654C959.877 587.344 953.866 635.339 934.983 681.471C913.613 733.677 877.737 774.329 832.918 807.619C776.942 849.195 713.513 873.3 645.823 887.27C595.867 897.579 545.269 902.628 494.383 900.179C403.495 895.805 315.539 878.624 235.109 833.27C185.559 805.329 142.552 769.844 111.466 721.441C91.8534 690.903 79.6094 657.403 73.7545 621.586C68.9671 592.298 67.6238 562.78 70.684 533.311C75.8664 483.408 89.0854 435.601 111.494 390.601C159.139 294.92 228.673 219.331 320.743 165.063C357.929 143.145 399.176 131.956 441.42 124.832C469.976 120.017 498.833 117.68 528.629 119.3ZM422.789 216.959C378.379 230.984 338.358 253.133 302.57 282.829C235.324 338.628 186.542 407.003 162.913 491.915C151.189 534.047 147.116 576.92 158.097 619.887C181.287 710.623 259.171 760.671 346.714 766.033C373.278 767.66 399.598 763.477 425.885 760.704C451.97 757.953 478.049 755.703 504.24 754.667C523.405 753.909 542.543 755.002 561.641 756.352C582.32 757.814 602.99 759.547 623.607 761.703C654.831 764.969 685.695 767.347 717.217 761.59C806.436 745.295 867.201 671.877 873.565 582.931C876.854 536.98 868.036 492.385 850.33 449.902C815.3 365.852 758.48 300.047 681.417 251.982C636.891 224.211 588.205 207.419 535.79 203.537C497.908 200.731 460.481 205.265 422.789 216.959Z" fill="black"/>
<path d="M738.949 506.445C739.702 532.191 736.158 556.361 725.399 579.042C717.879 594.895 707.23 607.932 689.28 612.31C667.604 617.597 650.238 608.055 635.09 594.122C614.865 575.519 604.329 551.182 598.119 524.965C589.166 487.168 587.497 449.249 600.27 411.9C607.735 390.072 620.777 373.193 645.08 368.66C662.775 365.359 677.816 371.757 691.287 382.591C706.818 395.082 716.885 411.557 724.265 429.809C734.09 454.106 739.533 479.287 738.949 506.445Z" fill="black"/>
<path d="M310.095 416.785C318.331 400.935 328.733 387.668 343.172 378.113C371.227 359.548 400.446 366.431 417.947 395.464C427.752 411.729 432.332 429.765 434.048 448.378C437.531 486.146 431.999 522.586 415.85 557.11C407.486 574.993 396.409 590.737 380.006 602.135C350.127 622.896 319.214 615.562 302.833 582.986C289.351 556.174 286.568 527.368 288.68 497.58C290.126 477.196 293.561 457.451 300.606 438.365C303.252 431.194 306.713 424.328 310.095 416.785Z" fill="black"/>
</svg>
